#!OML:ASF F:\VICON\USERDATA\INSTALL\rory3\rory3.ASF
:FULLY-SPECIFIED
:DEGREES
2606
root 0.857099 18.6191 0.368537 -366.605 63.5353 -357.156
lowerback 5.1139 1.54111 -2.15167
upperback -0.107286 1.89138 -1.54763
thorax -2.99472 0.968372 -0.531614
lowerneck -7.14549 -2.58952 -8.73796
upperneck 30.5221 -4.06938 9.41261
head 11.4219 -1.46438 4.62189
rclavicle 8.69683e-015 0
rhumerus 132.611 -101.2 -153.9
rradius 15.6271
rwrist -6.54297
rhand -34.622 -21.6522
rfingers 7.12502
rthumb -7.77995 -51.4891
lclavicle 8.69683e-015 0
lhumerus -27.689 44.0709 8.43108
lradius 16.7147
lwrist 25.9545
lhand -23.1999 31.7462
lfingers 7.12502
lthumb 3.25006 61.7012
rfemur -3.22408 8.28581 8.15804
rtibia 51.8187
rfoot -5.26858 -21.8983
rtoes -0.487395
lfemur 0.454235 -7.94906 -22.0154
ltibia 25.3437
lfoot -14.5049 7.49341
ltoes -0.33502
2607
root 0.825947 18.6129 0.387757 -366.668 63.3439 -357.125
lowerback 4.92482 1.57697 -2.09358
upperback -0.084854 1.95072 -1.47655
thorax -2.86638 0.996563 -0.489109
lowerneck -7.33763 -2.60178 -8.79115
upperneck 30.6036 -4.01136 9.20549
head 11.4852 -1.46536 4.56204
rclavicle 6.56983e-014 -8.74653e-015
rhumerus 136.852 -101.49 -158.249
rradius 15.6052
rwrist -6.17399
rhand -34.4874 -22.5088
rfingers 7.12502
rthumb -7.65002 -52.3505
lclavicle 6.56983e-014 -8.74653e-015
lhumerus -27.7884 44.8852 8.50807
lradius 16.6073
lwrist 25.1128
lhand -22.9225 31.9916
lfingers 7.12502
lthumb 3.51791 61.9423
rfemur -2.7142 8.21603 8.25975
rtibia 51.6739
rfoot -4.82145 -21.9451
rtoes -0.271623
lfemur 0.446327 -7.8516 -21.9208
ltibia 25.4306
lfoot -14.4656 7.59133
ltoes -0.70183
2608
root 0.79522 18.6103 0.407533 -366.685 63.1562 -356.996
lowerback 4.78857 1.51149 -2.12549
upperback -0.059272 1.86861 -1.37163
thorax -2.76738 0.955817 -0.352643
lowerneck -7.63529 -2.52619 -8.87118
upperneck 30.8235 -3.79383 8.92126
head 11.6068 -1.4041 4.50267
rclavicle 3.90115e-014 -5.96354e-015
rhumerus 141.499 -101.254 -162.873
rradius 15.3848
rwrist -5.12873
rhand -34.4784 -22.5123
rfingers 7.12502
rthumb -7.64133 -52.3542
lclavicle 3.90115e-014 -5.96354e-015
lhumerus -28.2874 45.8918 8.1045
lradius 16.501
lwrist 24.2812
lhand -22.9039 32.126
lfingers 7.12502
lthumb 3.53593 62.0765
rfemur -2.15096 8.14707 8.32262
rtibia 51.4615
rfoot -4.21178 -22.0338
rtoes 0.727755
lfemur 0.480896 -7.84118 -21.8927
ltibia 25.5691
lfoot -14.5795 7.72591
ltoes -0.662183
2609
root 0.761067 18.6043 0.427808 -366.869 63.0028 -357.062
lowerback 4.71581 1.48114 -1.96209
upperback -0.0822313 1.83899 -1.35054
thorax -2.74536 0.938702 -0.418443
lowerneck -7.86955 -2.48042 -8.73419
upperneck 31.0524 -3.66495 8.64802
head 11.7249 -1.35683 4.39876
rclavicle 5.71506e-015 1.63003e-014
rhumerus 147.435 -102.048 -168.96
rradius 15.2472
rwrist -5.41045
rhand -35.2203 -21.1536
rfingers 7.12502
rthumb -8.35738 -50.9683
lclavicle 5.71506e-015 1.63003e-014
lhumerus -28.1716 46.5582 8.00437
lradius 16.3926
lwrist 24.1618
lhand -23.2227 31.9615
lfingers 7.12502
lthumb 3.22807 61.9168
rfemur -1.57387 8.12393 8.47744
rtibia 51.1744
rfoot -3.84443 -22.0685
rtoes 2.2044
lfemur 0.497067 -7.90713 -21.7728
ltibia 25.7035
lfoot -14.6357 7.89924
ltoes -0.906196
2610
root 0.724162 18.5957 0.450255 -367.057 62.7914 -357.239
lowerback 4.51073 1.49466 -1.75674
upperback -0.111043 1.87353 -1.31825
thorax -2.65463 0.952756 -0.496938
lowerneck -8.12193 -2.48391 -8.68269
upperneck 31.27 -3.62232 8.4871
head 11.8568 -1.34571 4.3426
rclavicle 2.09221e-014 2.38542e-015
rhumerus 152.647 -102.956 -174.195
rradius 15.1512
rwrist -5.71697
rhand -35.8268 -20.2326
rfingers 7.12502
rthumb -8.94265 -50.0231
lclavicle 2.09221e-014 2.38542e-015
lhumerus -27.8335 47.3449 7.91491
lradius 16.2316
lwrist 23.9189
lhand -23.0189 32.0539
lfingers 7.12502
lthumb 3.42485 62.0062
rfemur -1.11578 8.27116 8.7157
rtibia 50.8128
rfoot -3.5406 -21.9795
rtoes 2.90507
lfemur 0.408672 -7.8377 -21.5467
ltibia 25.826
lfoot -14.6065 7.97866
ltoes -1.01739
2611
root 0.686118 18.5921 0.478339 -367.044 62.6283 -357.142
lowerback 4.33764 1.53013 -1.7148
upperback -0.128269 1.9273 -1.31396
thorax -2.57426 0.978722 -0.514706
lowerneck -8.39576 -2.53918 -8.79828
upperneck 31.5517 -3.64572 8.41722
head 12.0331 -1.37265 4.34657
rclavicle 1.14301e-014 7.95139e-016
rhumerus 155.813 -102.766 -177.119
rradius 14.9717
rwrist -4.51511
rhand -35.7403 -20.3633
rfingers 7.12502
rthumb -8.85922 -50.1573
lclavicle 1.14301e-014 7.95139e-016
lhumerus -27.3424 48.4478 7.861
lradius 16.0758
lwrist 23.4111
lhand -22.5086 32.3616
lfingers 7.12502
lthumb 3.91768 62.3053
rfemur -0.615312 8.32985 8.87317
rtibia 50.4058
rfoot -2.96601 -21.949
rtoes 2.41888
lfemur 0.351528 -7.72203 -21.4346
ltibia 25.995
lfoot -14.6142 7.99742
ltoes -1.22643
2612
root 0.644991 18.5847 0.50942 -367.046 62.4883 -356.937
lowerback 4.25727 1.55325 -1.72125
upperback -0.0817606 1.9606 -1.3475
thorax -2.4805 0.994963 -0.544298
lowerneck -8.70083 -2.57123 -8.82529
upperneck 31.7932 -3.65367 8.35508
head 12.1969 -1.38178 4.33771
rclavicle 1.60519e-014 9.14409e-015
rhumerus 159.05 -102.186 -180.1
rradius 14.8027
rwrist -2.84818
rhand -35.6053 -20.8193
rfingers 7.12502
rthumb -8.72891 -50.6188
lclavicle 1.60519e-014 9.14409e-015
lhumerus -26.3722 48.9513 8.32048
lradius 16.2017
lwrist 24.4555
lhand -23.0698 32.7059
lfingers 7.12502
lthumb 3.37567 62.6589
rfemur 0.0668827 8.60733 9.07032
rtibia 49.9316
rfoot -2.89218 -22.1306
rtoes 1.21836
lfemur 0.406672 -7.66089 -21.3979
ltibia 26.1705
lfoot -14.6878 8.15648
ltoes -1.96953
2613
root 0.600647 18.5725 0.541971 -367.147 62.3215 -356.932
lowerback 4.10121 1.52976 -1.68596
upperback -0.0446054 1.93681 -1.29721
thorax -2.35518 0.982251 -0.505344
lowerneck -9.01418 -2.55725 -8.87946
upperneck 32.0038 -3.56914 8.2315
head 12.3402 -1.36137 4.31984
rclavicle -1.2275e-014 1.98785e-014
rhumerus 164.392 -102.273 -185.091
rradius 14.6316
rwrist -1.82857
rhand -35.5572 -21.1406
rfingers 7.12502
rthumb -8.68248 -50.942
lclavicle -1.2275e-014 1.98785e-014
lhumerus -25.4105 49.12 8.81223
lradius 16.4281
lwrist 25.9544
lhand -23.7326 32.9847
lfingers 7.12502
lthumb 2.73558 62.9469
rfemur 0.664834 9.01056 9.39046
rtibia 49.4011
rfoot -3.36748 -22.3925
rtoes -1.19132
lfemur 0.357014 -7.63569 -21.2474
ltibia 26.3591
lfoot -14.6722 8.38499
ltoes -2.91225
2614
root 0.555671 18.5653 0.575197 -367.289 62.1671 -356.982
lowerback 3.9583 1.50974 -1.64113
upperback -0.0210127 1.91734 -1.23454
thorax -2.25132 0.971703 -0.460113
lowerneck -9.29283 -2.53372 -8.91126
upperneck 32.2386 -3.47564 8.1104
head 12.4857 -1.33414 4.30151
rclavicle -9.03973e-014 5.1684e-015
rhumerus 169.949 -103.21 -190.189
rradius 14.4797
rwrist -1.46432
rhand -35.8174 -21.2215
rfingers 7.12502
rthumb -8.93358 -51.0124
lclavicle -9.03973e-014 5.1684e-015
lhumerus -24.3089 49.1283 9.32795
lradius 16.6901
lwrist 27.2774
lhand -23.9457 33.7896
lfingers 7.12502
lthumb 2.52979 63.7543
rfemur 1.24893 9.28786 9.76608
rtibia 48.8192
rfoot -4.12116 -22.6382
rtoes -5.1854
lfemur 0.259343 -7.70229 -21.068
ltibia 26.6192
lfoot -14.7233 8.54089
ltoes -3.33656
2615
root 0.508575 18.5538 0.610673 -367.57 61.9897 -357.149
lowerback 3.86878 1.64862 -1.4602
upperback -0.0306581 2.11143 -1.31961
thorax -2.20221 1.06622 -0.657234
lowerneck -9.3776 -2.64156 -8.5675
upperneck 32.3666 -3.65899 7.95984
head 12.567 -1.38954 4.16238
rclavicle 1.73937e-015 7.55382e-015
rhumerus 172.546 -104.965 -192.391
rradius 14.4794
rwrist -1.88005
rhand -36.2419 -21.396
rfingers 7.12502
rthumb -9.34325 -51.1689
lclavicle 1.73937e-015 7.55382e-015
lhumerus -22.6508 51.0403 9.71661
lradius 16.6231
lwrist 26.2347
lhand -23.9167 34.6621
lfingers 7.12502
lthumb 2.55783 64.6265
rfemur 1.89878 9.65523 10.2725
rtibia 48.1612
rfoot -5.11252 -22.6795
rtoes -9.20615
lfemur 0.15983 -7.73276 -20.8162
ltibia 26.9575
lfoot -14.8052 8.66576
ltoes -3.80034
2616
root 0.457045 18.5341 0.648003 -367.705 61.8255 -357.058
lowerback 3.89829 1.88242 -1.31115
upperback -0.041513 2.42583 -1.56506
thorax -2.21318 1.22122 -1.01176
lowerneck -9.37563 -2.83932 -8.08842
upperneck 32.4452 -4.04241 7.91449
head 12.6278 -1.50444 4.01135
rclavicle 7.25564e-015 -5.56597e-015
rhumerus 173.576 -107.158 -193.154
rradius 14.6452
rwrist -3.00323
rhand -36.81 -21.5637
rfingers 7.12502
rthumb -9.89138 -51.3113
lclavicle 7.25564e-015 -5.56597e-015
lhumerus -19.8043 51.7749 11.1469
lradius 16.5893
lwrist 25.8993
lhand -23.6136 34.6885
lfingers 7.12502
lthumb 2.8505 64.6492
rfemur 2.63125 10.2439 10.7147
rtibia 47.4562
rfoot -6.43529 -22.5844
rtoes -11.7251
lfemur 0.161131 -7.77589 -20.7014
ltibia 27.2591
lfoot -14.9037 8.87921
ltoes -4.42852
2617
root 0.404348 18.5168 0.685465 -367.767 61.6914 -356.999
lowerback 3.79055 1.94718 -1.24011
upperback -0.0237053 2.51734 -1.64619
thorax -2.12715 1.26604 -1.13523
lowerneck -9.58997 -2.93777 -8.00249
upperneck 32.6784 -4.18287 7.8637
head 12.7842 -1.55745 3.96705
rclavicle 7.30534e-014 9.14409e-015
rhumerus 176.32 -109.869 -195.501
rradius 14.8731
rwrist -4.62432
rhand -37.5838 -20.9022
rfingers 7.12502
rthumb -10.6378 -50.6129
lclavicle 7.30534e-014 9.14409e-015
lhumerus -17.5904 51.9622 12.2007
lradius 16.7041
lwrist 26.1701
lhand -23.2988 33.7651
lfingers 7.12502
lthumb 3.15451 63.7215
rfemur 3.23005 10.8214 11.1748
rtibia 46.7201
rfoot -7.2978 -22.4688
rtoes -13.9764
lfemur 0.0533312 -7.785 -20.5456
ltibia 27.528
lfoot -14.9293 9.08667
ltoes -5.38801
2618
root 0.351841 18.5077 0.724493 -367.841 61.5702 -356.955
lowerback 3.65466 1.91051 -1.21923
upperback 0.0177987 2.47378 -1.61478
thorax -2.00924 1.2441 -1.10591
lowerneck -9.77473 -2.94086 -8.31804
upperneck 32.8867 -4.14425 7.97637
head 12.9201 -1.56206 4.0833
rclavicle 2.42517e-014 -1.19271e-015
rhumerus 179.789 -111.476 -198.273
rradius 14.932
rwrist -4.44046
rhand -37.7749 -20.168
rfingers 7.12502
rthumb -10.8222 -49.8692
lclavicle 2.42517e-014 -1.19271e-015
lhumerus -15.7851 51.3616 13.0362
lradius 17.0008
lwrist 27.2367
lhand -23.4202 33.2892
lfingers 7.12502
lthumb 3.0373 63.2473
rfemur 3.80403 11.2884 11.6573
rtibia 46.0104
rfoot -7.5499 -22.5631
rtoes -16.0015
lfemur -0.0204031 -7.81873 -20.386
ltibia 27.7541
lfoot -14.923 9.25067
ltoes -6.21683
2619
root 0.298917 18.5024 0.767126 -367.93 61.4495 -356.906
lowerback 3.57303 1.90332 -1.21649
upperback 0.00558358 2.46592 -1.60859
thorax -1.97627 1.24011 -1.09784
lowerneck -9.74918 -2.94244 -8.54232
upperneck 33.0008 -4.12482 8.06381
head 12.9696 -1.56991 4.16689
rclavicle -5.37713e-014 -1.07344e-014
rhumerus 182.916 -112.349 -200.53
rradius 14.9394
rwrist -3.0308
rhand -37.1647 -20.4386
rfingers 7.12502
rthumb -10.2336 -50.1696
lclavicle -5.37713e-014 -1.07344e-014
lhumerus -13.7829 50.5072 13.924
lradius 17.3342
lwrist 28.2802
lhand -23.7623 33.1833
lfingers 7.12502
lthumb 2.70694 63.1459
rfemur 4.40501 11.6823 12.1475
rtibia 45.3677
rfoot -8.33078 -22.8397
rtoes -15.4114
lfemur -0.0283277 -7.98583 -20.2427
ltibia 27.9454
lfoot -14.952 9.41801
ltoes -6.35544
2620
root 0.24426 18.4947 0.811167 -368.167 61.3129 -357.075
lowerback 3.4485 1.92118 -1.13496
upperback -0.0150545 2.49549 -1.58106
thorax -1.92514 1.25401 -1.11232
lowerneck -9.73406 -2.96119 -8.39722
upperneck 33.116 -4.10719 7.8126
head 13.0049 -1.57445 4.04757
rclavicle 3.10104e-014 -1.59028e-015
rhumerus 185.627 -113.466 -202.32
rradius 15.0137
rwrist -1.94404
rhand -36.7949 -20.6552
rfingers 7.12502
rthumb -9.87678 -50.4035
lclavicle 3.10104e-014 -1.59028e-015
lhumerus -11.6108 50.0171 14.8891
lradius 17.6842
lwrist 28.7784
lhand -24.1151 32.9347
lfingers 7.12502
lthumb 2.36625 62.9013
rfemur 4.93873 12.0241 12.7185
rtibia 44.7956
rfoot -9.43557 -23.0181
rtoes -12.7863
lfemur -0.0572707 -8.23289 -19.985
ltibia 28.0886
lfoot -15.0104 9.60904
ltoes -5.84406
